<svg xmlns="http://www.w3.org/2000/svg" xmlns:xlink="http://www.w3.org/1999/xlink" viewBox="0 0 351.29 351.29"><defs><linearGradient id="4" x1="180.24" y1="136.25" x2="223.85" y2="193.62" gradientUnits="userSpaceOnUse"><stop stop-color="#e0bd74"/><stop offset=".18" stop-color="#d5aa5f"/><stop offset=".35" stop-color="#c1893b"/><stop offset=".51" stop-color="#b27224"/><stop offset=".73" stop-color="#e0bd74"/><stop offset=".88" stop-color="#fdeca2"/><stop offset="1" stop-color="#f3cf6d"/></linearGradient><linearGradient id="5" x1="121.96" y1="151.69" x2="203.19" y2="255.73" xlink:href="#3"/><linearGradient id="3" x1="174.11" y1="108.9" x2="219.49" y2="168.61" gradientUnits="userSpaceOnUse"><stop stop-color="#e0bd74"/><stop offset=".15" stop-color="#d5aa5f"/><stop offset=".31" stop-color="#c1893b"/><stop offset=".45" stop-color="#b27224"/><stop offset=".73" stop-color="#e0bd74"/><stop offset=".88" stop-color="#fdeca2"/><stop offset="1" stop-color="#f3cf6d"/></linearGradient><linearGradient id="1" x1="78.01" y1="47.72" x2="272.77" y2="303.96" gradientUnits="userSpaceOnUse"><stop stop-color="#d5aa5f"/><stop offset=".21" stop-color="#c1893b"/><stop offset=".53" stop-color="#805c22"/><stop offset=".83" stop-color="#e0bd74"/><stop offset="1" stop-color="#fdeca2"/></linearGradient><linearGradient id="0" x1="37.81" y1="289.95" x2="337.22" y2="41.66" gradientUnits="userSpaceOnUse"><stop offset=".1" stop-color="#dfb156"/><stop offset=".5" stop-color="#ffedb3"/><stop offset=".92" stop-color="#dfb156"/></linearGradient><linearGradient id="2" x1="80.94" y1="51.56" x2="269.85" y2="300.12" gradientUnits="userSpaceOnUse"><stop stop-color="#d5aa5f"/><stop offset=".19" stop-color="#c1893b"/><stop offset=".53" stop-color="#805c22"/><stop offset=".89" stop-color="#e0bd74"/><stop offset="1" stop-color="#fdeca2"/></linearGradient></defs><circle cx="175.65" cy="175.65" r="175.65" fill="url(#0)"/><g fill="none" stroke-miterlimit="10"><ellipse cx="175.39" cy="175.84" rx="159.75" ry="159.23" stroke="url(#1)" stroke-width="3"/><ellipse cx="175.39" cy="175.84" rx="154.96" ry="154.45" stroke="url(#2)" stroke-width="2.91"/></g><g fill="#fdeca2"><path d="M340.76,167.07a1.63,1.63,0,1,0,.13,3.25l7.81-.26a1.7,1.7,0,0,0-.15-3.4Z"/><path d="M340.75,166.9l7.79-.41a1.87,1.87,0,0,1,.16,3.74l-7.8.25a1.79,1.79,0,1,1-.15-3.58Zm7.81-.07-7.79.4a1.46,1.46,0,1,0,.12,2.92l7.8-.26a1.53,1.53,0,0,0-.13-3.06Z"/><path d="M340.05,158.15a1.63,1.63,0,1,0,.31,3.24l7.78-.68a1.7,1.7,0,0,0-.33-3.39Z"/><path d="M340,158l7.76-.83a1.87,1.87,0,0,1,.36,3.72l-7.77.67a1.84,1.84,0,0,1-2-1.61A1.82,1.82,0,0,1,340,158Zm7.8-.5-7.77.82a1.47,1.47,0,1,0,.29,2.92l7.77-.69a1.53,1.53,0,0,0-.29-3Z"/><path d="M338.86,149.29a1.62,1.62,0,1,0,.49,3.21l7.73-1.09a1.71,1.71,0,0,0-.52-3.37Z"/><path d="M338.83,149.13l7.71-1.26a1.88,1.88,0,0,1,.56,3.71l-7.73,1.08a1.79,1.79,0,1,1-.54-3.53Zm7.76-.92-7.71,1.24a1.46,1.46,0,1,0,.44,2.89l7.73-1.1a1.53,1.53,0,0,0-.46-3Z"/><path d="M337.19,140.5a1.62,1.62,0,1,0,.66,3.18l7.66-1.5a1.71,1.71,0,0,0-.69-3.34Z"/><path d="M337.15,140.34l7.63-1.67a1.87,1.87,0,0,1,.76,3.67l-7.66,1.5a1.79,1.79,0,1,1-.73-3.5Zm7.7-1.33-7.63,1.65a1.46,1.46,0,1,0,.6,2.86l7.66-1.51a1.53,1.53,0,0,0-.63-3Z"/><path d="M335,131.82a1.63,1.63,0,1,0,.84,3.14l7.56-1.92a1.7,1.7,0,0,0-.88-3.29Z"/><path d="M335,131.66l7.52-2.08a1.86,1.86,0,0,1,2.27,1.34,1.84,1.84,0,0,1-1.31,2.28l-7.56,1.92a1.79,1.79,0,1,1-.92-3.46Zm7.61-1.75L335.08,132a1.46,1.46,0,1,0,.76,2.82l7.56-1.93a1.53,1.53,0,0,0-.79-3Z"/><path d="M332.42,123.27a1.63,1.63,0,1,0,1,3.09l7.45-2.33a1.7,1.7,0,0,0-1.06-3.24Z"/><path d="M332.37,123.11l7.4-2.48a1.87,1.87,0,0,1,1.16,3.56l-7.45,2.33a1.79,1.79,0,1,1-1.11-3.41Zm7.51-2.16-7.41,2.47a1.47,1.47,0,1,0,.91,2.79l7.44-2.34a1.53,1.53,0,0,0-.94-2.92Z"/><path d="M329.34,114.87a1.66,1.66,0,0,0-1,2.12,1.67,1.67,0,0,0,2.14.92l7.31-2.74a1.7,1.7,0,0,0-1.23-3.18Z"/><path d="M329.28,114.72l7.25-2.88a1.87,1.87,0,0,1,1.35,3.49l-7.31,2.73a1.79,1.79,0,1,1-1.29-3.34Zm7.38-2.57L329.4,115a1.46,1.46,0,1,0,1.06,2.73l7.3-2.74a1.53,1.53,0,0,0-1.1-2.86Z"/><path d="M325.8,106.66a1.63,1.63,0,1,0,1.34,3l7.15-3.13a1.7,1.7,0,0,0-1.4-3.1Z"/><path d="M325.73,106.51l7.09-3.28a1.88,1.88,0,0,1,1.54,3.42l-7.15,3.12a1.79,1.79,0,1,1-1.48-3.26Zm7.23-3-7.09,3.26a1.47,1.47,0,1,0,1.21,2.67l7.14-3.13a1.54,1.54,0,0,0-1.26-2.8Z"/><path d="M321.82,98.64a1.63,1.63,0,1,0,1.5,2.89l7-3.51a1.7,1.7,0,0,0-1.57-3Z"/><path d="M321.75,98.5l6.89-3.65a1.87,1.87,0,0,1,1.73,3.32l-7,3.51a1.79,1.79,0,1,1-1.64-3.18Zm7.05-3.35-6.9,3.64a1.49,1.49,0,0,0-.66,2,1.51,1.51,0,0,0,2,.61l7-3.52a1.53,1.53,0,0,0-1.41-2.72Z"/><path d="M317.41,90.86a1.63,1.63,0,1,0,1.66,2.8l6.77-3.88a1.71,1.71,0,0,0-1.74-2.94Z"/><path d="M317.33,90.72l6.68-4a1.88,1.88,0,0,1,1.91,3.23l-6.77,3.87a1.79,1.79,0,1,1-1.82-3.08ZM324.19,87l-6.69,4A1.46,1.46,0,1,0,319,93.52l6.76-3.89A1.53,1.53,0,0,0,324.19,87Z"/><path d="M312.59 83.32a1.63 1.63 0 1 0 1.8 2.71l6.55-4.24A1.71 1.71 0 0 0 319.05 79"/><path d="M312.5,83.19,319,78.81a1.86,1.86,0,0,1,2.58.54,1.84,1.84,0,0,1-.5,2.58l-6.55,4.24a1.79,1.79,0,1,1-2-3Zm6.65-4.1-6.47,4.37a1.46,1.46,0,1,0,1.62,2.44l6.54-4.25a1.53,1.53,0,0,0-1.69-2.56Z"/><path d="M307.36,76.06a1.64,1.64,0,0,0-.36,2.29,1.66,1.66,0,0,0,2.31.32l6.31-4.59a1.7,1.7,0,0,0-2-2.73Z"/><path d="M307.26,75.93l6.21-4.72a1.86,1.86,0,0,1,2.61.4,1.85,1.85,0,0,1-.36,2.6L309.4,78.8a1.79,1.79,0,1,1-2.14-2.87Zm6.42-4.45-6.22,4.71a1.47,1.47,0,1,0,1.75,2.35l6.3-4.6a1.53,1.53,0,0,0-1.83-2.46Z"/><path d="M301.75 69.08a1.63 1.63 0 1 0 2.08 2.51l6.05-4.93a1.66 1.66 0 0 0 .2 -2.38A1.68 1.68 0 0 0 307.7 64"/><path d="m301.64 69l5.95-5a1.88 1.88 0 0 1 2.41 2.8l-6.05 4.91a1.79 1.79 0 1 1 -2.3 -2.75m6.16-4.75l-6 5a1.47 1.47 0 1 0 1.88 2.25l6-4.93a1.5 1.5 0 0 0 .19 -2.14 1.53 1.53 0 0 0 -2.07 -.22"/><path d="M295.77,62.42A1.63,1.63,0,1,0,298,64.81l5.78-5.24a1.71,1.71,0,0,0-2.32-2.5Z"/><path d="M295.66,62.31,301.32,57a1.88,1.88,0,0,1,2.56,2.74l-5.79,5.24a1.79,1.79,0,1,1-2.43-2.62Zm5.9-5.12-5.68,5.35a1.47,1.47,0,1,0,2,2.15l5.78-5.25a1.54,1.54,0,0,0-2.09-2.25Z"/><path d="M289.44,56.09a1.65,1.65,0,0,0,0,2.33,1.67,1.67,0,0,0,2.33-.06l5.48-5.55a1.7,1.7,0,0,0-2.45-2.37Z"/><path d="M289.32,56l5.37-5.65a1.87,1.87,0,0,1,2.69,2.6l-5.49,5.54A1.79,1.79,0,1,1,289.32,56Zm5.62-5.42-5.39,5.64a1.47,1.47,0,1,0,2.11,2l5.48-5.55a1.53,1.53,0,0,0-2.2-2.13Z"/><path d="M282.77,50.11a1.63,1.63,0,1,0,2.46,2.13l5.18-5.83a1.68,1.68,0,0,0-.18-2.38,1.7,1.7,0,0,0-2.4.15Z"/><path d="M282.65,50l5.06-5.94a1.87,1.87,0,0,1,2.83,2.46l-5.18,5.82a1.83,1.83,0,0,1-2.56.21A1.81,1.81,0,0,1,282.65,50ZM288,44.29l-5.06,5.93a1.46,1.46,0,1,0,2.21,1.92l5.17-5.84a1.51,1.51,0,0,0-.16-2.14A1.53,1.53,0,0,0,288,44.29Z"/><path d="M275.8,44.5a1.63,1.63,0,1,0,2.57,2l4.85-6.11a1.68,1.68,0,0,0-.31-2.37,1.69,1.69,0,0,0-2.38.28Z"/><path d="M275.67,44.4l4.72-6.2a1.88,1.88,0,0,1,3,2.3l-4.86,6.1a1.84,1.84,0,0,1-2.54.34A1.82,1.82,0,0,1,275.67,44.4Zm5-6-4.74,6.19a1.46,1.46,0,1,0,2.31,1.8l4.85-6.1a1.54,1.54,0,0,0-2.42-1.89Z"/><path d="M268.53,39.27a1.62,1.62,0,1,0,2.67,1.85l4.52-6.35a1.7,1.7,0,0,0-2.8-1.94Z"/><path d="M268.39,39.17l4.39-6.44a1.88,1.88,0,0,1,3.08,2.14l-4.52,6.35a1.8,1.8,0,1,1-2.95-2Zm4.67-6.25-4.4,6.44a1.48,1.48,0,0,0,.35,2.06,1.5,1.5,0,0,0,2.06-.39l4.51-6.36a1.53,1.53,0,0,0-2.52-1.75Z"/><path d="M261,34.43a1.63,1.63,0,1,0,2.78,1.72l4.16-6.59a1.7,1.7,0,0,0-2.9-1.79Z"/><path d="M260.84,34.35l4-6.67a1.87,1.87,0,0,1,3.19,2l-4.18,6.58a1.79,1.79,0,1,1-3.05-1.88Zm4.33-6.5-4.05,6.67a1.47,1.47,0,1,0,2.5,1.54l4.16-6.59a1.54,1.54,0,0,0-2.61-1.62Z"/><path d="M253.19,30a1.63,1.63,0,1,0,2.86,1.55l3.81-6.8a1.71,1.71,0,0,0-3-1.63Z"/><path d="M253.05,29.94l3.66-6.88a1.88,1.88,0,0,1,3.3,1.79l-3.81,6.8a1.79,1.79,0,1,1-3.15-1.71Zm4-6.72-3.67,6.88a1.48,1.48,0,0,0,.57,2,1.49,1.49,0,0,0,2-.61l3.8-6.81a1.54,1.54,0,0,0-2.7-1.47Z"/><path d="M245.17 26a1.63 1.63 0 1 0 2.94 1.4l3.43-7A1.7 1.7 0 0 0 248.46 19"/><path d="M245,26l3.29-7.06a1.87,1.87,0,0,1,3.38,1.61l-3.43,7A1.79,1.79,0,1,1,245,26Zm3.6-6.92-3.3,7.06A1.47,1.47,0,1,0,248,27.36l3.42-7A1.53,1.53,0,0,0,248.62,19Z"/><path d="M237,22.49a1.63,1.63,0,1,0,3,1.23l3-7.17a1.71,1.71,0,0,0-3.16-1.3Z"/><path d="M236.79,22.43l2.9-7.24a1.87,1.87,0,0,1,3.47,1.42l-3,7.18a1.79,1.79,0,1,1-3.32-1.36ZM240,15.32l-2.9,7.23a1.49,1.49,0,0,0,.78,1.94,1.5,1.5,0,0,0,1.93-.83l3-7.18a1.51,1.51,0,0,0-.84-2A1.53,1.53,0,0,0,240,15.32Z"/><path d="M228.54 19.39a1.66 1.66 0 0 0 1 2.11 1.65 1.65 0 0 0 2.08 -1l2.65-7.33A1.71 1.71 0 0 0 231 12"/><path d="M228.38,19.34l2.5-7.38a1.87,1.87,0,0,1,3.54,1.23l-2.65,7.33a1.8,1.8,0,1,1-3.39-1.18Zm2.82-7.27-2.51,7.37a1.47,1.47,0,1,0,2.77,1l2.64-7.33a1.54,1.54,0,0,0-2.9-1Z"/><path d="M220,16.76a1.63,1.63,0,1,0,3.14.91l2.24-7.47a1.71,1.71,0,0,0-3.28-.94Z"/><path d="M219.82,16.72l2.08-7.51a1.88,1.88,0,0,1,3.61,1l-2.25,7.46a1.79,1.79,0,1,1-3.44-1Zm2.41-7.42-2.1,7.51a1.47,1.47,0,1,0,2.82.81l2.23-7.47a1.51,1.51,0,0,0-1.05-1.87A1.52,1.52,0,0,0,222.23,9.3Z"/><path d="M211.28 14.6a1.63 1.63 0 1 0 3.18 .73l1.83-7.57A1.71 1.71 0 0 0 213 7"/><path d="M211.12,14.57,212.79,7a1.88,1.88,0,0,1,3.66.84l-1.84,7.57a1.79,1.79,0,1,1-3.49-.8Zm2-7.54-1.69,7.61a1.47,1.47,0,1,0,2.86.66l1.82-7.58a1.53,1.53,0,0,0-3-.69Z"/><path d="M202.48,12.92a1.63,1.63,0,1,0,3.21.56l1.41-7.66a1.71,1.71,0,0,0-3.36-.59Z"/><path d="M202.32,12.89l1.25-7.69a1.88,1.88,0,0,1,3.7.65l-1.42,7.66a1.79,1.79,0,1,1-3.53-.62Zm1.59-7.63L202.64,13a1.47,1.47,0,1,0,2.89.5l1.41-7.66a1.54,1.54,0,0,0-3-.53Z"/><path d="M193.6,11.72a1.63,1.63,0,1,0,3.24.38l1-7.73a1.71,1.71,0,0,0-3.39-.4Z"/><path d="M193.44,11.7,194.27,4a1.88,1.88,0,0,1,3.73.44l-1,7.73a1.79,1.79,0,1,1-3.56-.42ZM194.61,4l-.85,7.74a1.47,1.47,0,1,0,2.92.35l1-7.73a1.5,1.5,0,0,0-1.34-1.68A1.52,1.52,0,0,0,194.61,4Z"/><path d="M184.67,11a1.63,1.63,0,1,0,3.25.21l.58-7.77a1.71,1.71,0,0,0-3.41-.22Z"/><path d="M184.5,11l.42-7.78a1.88,1.88,0,0,1,3.75.24l-.59,7.77A1.79,1.79,0,1,1,184.5,11Zm.76-7.76L184.83,11a1.47,1.47,0,1,0,2.93.19l.57-7.77a1.54,1.54,0,0,0-3.07-.2Z"/><path d="M175.71 10.74a1.63 1.63 0 1 0 3.26 0L179.13 3a1.71 1.71 0 0 0 -3.42 0"/><path d="M175.54,10.74V3a1.88,1.88,0,0,1,3.76,0l-.17,7.79a1.8,1.8,0,1,1-3.59,0ZM175.88,3v7.79a1.47,1.47,0,1,0,2.93,0L179,3a1.54,1.54,0,0,0-3.07,0Z"/><path d="M166.74,11a1.63,1.63,0,1,0,3.26-.13l-.26-7.79a1.7,1.7,0,0,0-3.4.14Z"/><path d="M166.58,11l-.41-7.78A1.88,1.88,0,0,1,169.92,3l.24,7.79a1.81,1.81,0,0,1-1.71,1.9A1.83,1.83,0,0,1,166.58,11Zm-.07-7.8.4,7.78a1.47,1.47,0,1,0,2.93-.12l-.27-7.79a1.53,1.53,0,0,0-3.06.13Z"/><path d="M157.81,11.68a1.63,1.63,0,1,0,3.24-.31l-.67-7.76a1.71,1.71,0,0,0-3.4.32Z"/><path d="M157.65,11.7,156.81,4a1.88,1.88,0,0,1,3.74-.36l.67,7.76a1.79,1.79,0,1,1-3.57.35Zm-.5-7.78.82,7.74a1.47,1.47,0,1,0,2.92-.28l-.68-7.76a1.54,1.54,0,0,0-3.06.3Z"/><path d="M148.93,12.87a1.63,1.63,0,1,0,3.22-.49l-1.09-7.71a1.71,1.71,0,0,0-3.38.51Z"/><path d="M148.77,12.89,147.51,5.2a1.88,1.88,0,0,1,3.71-.56l1.09,7.72a1.79,1.79,0,1,1-3.54.53Zm-.92-7.74,1.24,7.69a1.47,1.47,0,1,0,2.9-.44l-1.1-7.71a1.54,1.54,0,0,0-3,.46Z"/><path d="M140.12,14.53a1.63,1.63,0,1,0,3.2-.66L141.8,6.23a1.71,1.71,0,0,0-3.34.69Z"/><path d="M140,14.57,138.29,7A1.88,1.88,0,0,1,142,6.2l1.5,7.64a1.79,1.79,0,1,1-3.5.73Zm-1.34-7.68,1.65,7.61a1.47,1.47,0,1,0,2.88-.59l-1.52-7.65a1.54,1.54,0,0,0-3,.63Z"/><path d="M131.43,16.68a1.63,1.63,0,1,0,3.15-.84l-1.93-7.55a1.69,1.69,0,0,0-2.08-1.18,1.67,1.67,0,0,0-1.22,2.06Z"/><path d="M131.27,16.72l-2.09-7.51a1.88,1.88,0,0,1,3.63-1l1.92,7.55a1.79,1.79,0,1,1-3.46.92Zm-1.76-7.6,2.07,7.52a1.47,1.47,0,1,0,2.84-.76l-1.94-7.54a1.54,1.54,0,0,0-3,.78Z"/><path d="M122.86,19.29a1.63,1.63,0,1,0,3.1-1l-2.34-7.44a1.71,1.71,0,0,0-3.25,1.06Z"/><path d="M122.7,19.34,120.21,12a1.88,1.88,0,0,1,3.57-1.16l2.33,7.44a1.79,1.79,0,1,1-3.41,1.1Zm-2.17-7.49L123,19.24a1.5,1.5,0,0,0,1.86,1,1.48,1.48,0,0,0,.93-1.87l-2.34-7.44a1.54,1.54,0,0,0-2.93.95Z"/><path d="M114.44,22.37a1.67,1.67,0,0,0,2.12,1,1.64,1.64,0,0,0,.92-2.13l-2.74-7.3a1.71,1.71,0,0,0-3.18,1.23Z"/><path d="M114.29,22.43l-2.89-7.24a1.88,1.88,0,0,1,3.5-1.35l2.74,7.3a1.8,1.8,0,1,1-3.35,1.29Zm-2.57-7.37,2.88,7.25a1.46,1.46,0,1,0,2.73-1.06L114.58,14a1.53,1.53,0,0,0-2.86,1.1Z"/><path d="M106.21,25.9a1.63,1.63,0,1,0,3-1.34l-3.13-7.14a1.7,1.7,0,0,0-2.25-.83,1.68,1.68,0,0,0-.86,2.23Z"/><path d="M106.06,26l-3.28-7.06a1.88,1.88,0,0,1,3.42-1.54l3.13,7.13A1.79,1.79,0,1,1,106.06,26Zm-3-7.21,3.27,7.08a1.46,1.46,0,1,0,2.67-1.2l-3.14-7.14a1.54,1.54,0,0,0-2.8,1.26Z"/><path d="M98.18,29.87a1.63,1.63,0,1,0,2.9-1.5l-3.52-6.95a1.69,1.69,0,0,0-2.29-.71A1.67,1.67,0,0,0,94.53,23Z"/><path d="M98,29.94l-3.66-6.88a1.84,1.84,0,0,1,.81-2.5,1.86,1.86,0,0,1,2.52.78l3.51,7a1.81,1.81,0,0,1-.75,2.44A1.83,1.83,0,0,1,98,29.94Zm-3.36-7,3.65,6.89a1.46,1.46,0,1,0,2.6-1.34L97.41,21.5a1.53,1.53,0,0,0-2.73,1.4Z"/><path d="M90.38,34.27a1.67,1.67,0,0,0,2.25.61,1.65,1.65,0,0,0,.56-2.26L89.3,25.86a1.71,1.71,0,0,0-2.94,1.73Z"/><path d="M90.24,34.35l-4-6.67a1.88,1.88,0,0,1,3.24-1.9l3.88,6.76a1.79,1.79,0,1,1-3.09,1.81ZM86.5,27.51l4,6.68a1.47,1.47,0,1,0,2.53-1.49L89.15,26a1.54,1.54,0,0,0-2.65,1.56Z"/><path d="M82.83,39.08a1.63,1.63,0,1,0,2.72-1.79l-4.26-6.54a1.71,1.71,0,0,0-2.84,1.89Z"/><path d="M82.7,39.18l-4.39-6.45a1.88,1.88,0,0,1,3.13-2.07l4.24,6.54a1.79,1.79,0,1,1-3,2Zm-4.11-6.64L83,39a1.47,1.47,0,1,0,2.45-1.61l-4.26-6.53a1.53,1.53,0,0,0-2.56,1.69Z"/><path d="M75.55,44.3a1.65,1.65,0,0,0,2.3.36,1.64,1.64,0,0,0,.31-2.3l-4.6-6.3a1.7,1.7,0,0,0-2.73,2Z"/><path d="M75.42,44.4l-4.73-6.2a1.88,1.88,0,0,1,3-2.24l4.6,6.3a1.79,1.79,0,1,1-2.88,2.14ZM71,38l4.72,6.2A1.47,1.47,0,1,0,78,42.45l-4.6-6.29A1.54,1.54,0,0,0,71,38Z"/><path d="M68.56 49.9a1.63 1.63 0 1 0 2.51 -2.08l-4.93-6A1.71 1.71 0 0 0 63.51 44"/><path d="M68.44,50l-5.06-5.94a1.88,1.88,0,0,1,2.89-2.39l4.93,6A1.79,1.79,0,1,1,68.44,50Zm-4.8-6.16,5,5.95a1.5,1.5,0,0,0,2.08.21,1.47,1.47,0,0,0,.17-2.08l-4.94-6a1.53,1.53,0,0,0-2.36,2Z"/><path d="M61.89,55.87a1.63,1.63,0,1,0,2.39-2.21L59,47.89a1.71,1.71,0,0,0-2.5,2.32Z"/><path d="M61.77,56,56.4,50.33a1.88,1.88,0,0,1,2.75-2.55l5.25,5.77A1.79,1.79,0,1,1,61.77,56Zm-5.12-5.89L62,55.76a1.47,1.47,0,1,0,2.15-2L58.9,48a1.53,1.53,0,0,0-2.25,2.08Z"/><path d="M55.54,62.19a1.67,1.67,0,0,0,2.33,0,1.66,1.66,0,0,0-.06-2.33l-5.55-5.47a1.7,1.7,0,0,0-2.38,2.44Z"/><path d="M55.43,62.31,49.77,57a1.87,1.87,0,0,1,2.61-2.69l5.55,5.48A1.81,1.81,0,0,1,58,62.29,1.83,1.83,0,0,1,55.43,62.31ZM50,56.7l5.66,5.37a1.46,1.46,0,1,0,2-2.1L52.14,54.5A1.53,1.53,0,0,0,50,56.7Z"/><path d="M49.55,68.84a1.63,1.63,0,1,0,2.14-2.46l-5.84-5.16a1.7,1.7,0,0,0-2.24,2.57Z"/><path d="M49.44,69l-5.94-5A1.87,1.87,0,0,1,46,61.09l5.84,5.17A1.79,1.79,0,1,1,49.44,69Zm-5.72-5.3,5.94,5.06a1.5,1.5,0,0,0,2.09-.13,1.48,1.48,0,0,0-.17-2.08l-5.85-5.17a1.53,1.53,0,0,0-2,2.32Z"/><path d="M43.92,75.8a1.63,1.63,0,1,0,2-2.56l-6.12-4.85a1.7,1.7,0,0,0-2.09,2.69Z"/><path d="M43.83,75.93l-6.22-4.72a1.87,1.87,0,0,1,2.31-2.95L46,73.11a1.79,1.79,0,1,1-2.2,2.82Zm-6-5L44,75.67a1.47,1.47,0,1,0,1.81-2.31l-6.12-4.84a1.54,1.54,0,0,0-1.89,2.42Z"/><path d="M38.68,83.06a1.63,1.63,0,1,0,1.86-2.68l-6.36-4.51a1.7,1.7,0,0,0-2.36.45,1.68,1.68,0,0,0,.41,2.35Z"/><path d="M38.59,83.19l-6.46-4.38a1.87,1.87,0,0,1,2.14-3.07l6.37,4.51a1.79,1.79,0,1,1-2,2.94Zm-6.26-4.66,6.45,4.39a1.46,1.46,0,1,0,1.67-2.4L34.08,76a1.53,1.53,0,0,0-1.75,2.52Z"/><path d="M33.84,90.58a1.63,1.63,0,1,0,1.72-2.76L29,83.66a1.7,1.7,0,0,0-1.8,2.89Z"/><path d="M33.76,90.72l-6.69-4a1.88,1.88,0,0,1,2-3.19l6.59,4.17a1.79,1.79,0,1,1-1.88,3Zm-6.51-4.31,6.68,4A1.46,1.46,0,1,0,35.47,88L28.86,83.8a1.53,1.53,0,0,0-1.61,2.61Z"/><path d="M29.42 98.36A1.63 1.63 0 1 0 31 95.5l-6.82-3.79a1.7 1.7 0 0 0 -1.63 3"/><path d="M29.34,98.5l-6.89-3.65a1.87,1.87,0,0,1,1.79-3.29l6.82,3.8a1.79,1.79,0,1,1-1.72,3.14Zm-6.73-4,6.88,3.67a1.47,1.47,0,1,0,1.41-2.57l-6.82-3.79a1.53,1.53,0,0,0-1.47,2.69Z"/><path d="M25.42,106.36a1.63,1.63,0,1,0,1.41-2.93l-7-3.42a1.7,1.7,0,0,0-1.47,3.07Z"/><path d="M25.35,106.51l-7.08-3.27a1.88,1.88,0,0,1,1.62-3.39l7,3.43a1.79,1.79,0,1,1-1.55,3.23Zm-6.94-3.58,7.08,3.29a1.47,1.47,0,1,0,1.26-2.65l-7-3.41a1.54,1.54,0,0,0-1.33,2.77Z"/><path d="M21.87,114.57a1.63,1.63,0,1,0,1.24-3l-7.19-3a1.7,1.7,0,0,0-1.3,3.15Z"/><path d="M21.81,114.72l-7.25-2.88A1.88,1.88,0,0,1,16,108.37l7.18,3a1.79,1.79,0,1,1-1.36,3.3Zm-7.12-3.2,7.24,2.9A1.46,1.46,0,1,0,23,111.71l-7.19-3a1.53,1.53,0,0,0-1.16,2.83Z"/><path d="M18.77,123a1.63,1.63,0,1,0,1.08-3.07l-7.35-2.64a1.71,1.71,0,0,0-1.13,3.22Z"/><path d="M18.72,123.12l-7.4-2.49a1.88,1.88,0,0,1,1.24-3.54l7.34,2.65a1.79,1.79,0,1,1-1.18,3.38Zm-7.29-2.81,7.39,2.5a1.5,1.5,0,0,0,1.9-.89,1.48,1.48,0,0,0-.93-1.87l-7.35-2.64a1.54,1.54,0,0,0-1,2.9Z"/><path d="M16.14,131.51a1.63,1.63,0,1,0,.9-3.13l-7.48-2.23a1.7,1.7,0,0,0-.94,3.27Z"/><path d="m16.09 131.67l-7.52-2.09a1.87 1.87 0 0 1 1 -3.59l7.48 2.24a1.82 1.82 0 0 1 1.26 2.22 1.84 1.84 0 0 1 -2.22 1.22m-7.43-2.41l7.52 2.09a1.46 1.46 0 1 0 .81 -2.81l-7.48-2.23a1.54 1.54 0 0 0 -.85 2.95"/><path d="M14 140.18A1.62 1.62 0 1 0 14.7 137l-7.59-1.83a1.7 1.7 0 0 0 -.76 3.32"/><path d="M13.94,140.34l-7.63-1.66A1.87,1.87,0,0,1,7.15,135l7.59,1.83a1.79,1.79,0,1,1-.8,3.48Zm-7.56-2L14,140a1.47,1.47,0,1,0,.66-2.86l-7.6-1.81a1.53,1.53,0,0,0-.69,3Z"/><path d="M12.28,149a1.63,1.63,0,1,0,.56-3.21l-7.67-1.41a1.71,1.71,0,0,0-.59,3.36Z"/><path d="M12.26,149.13l-7.71-1.25a1.87,1.87,0,0,1,.65-3.69l7.67,1.41a1.79,1.79,0,1,1-.61,3.53Zm-7.65-1.59,7.7,1.27a1.47,1.47,0,1,0,.5-2.89l-7.68-1.4a1.53,1.53,0,0,0-.52,3Z"/><path d="M11.08,157.83a1.63,1.63,0,1,0,.38-3.23l-7.74-1a1.7,1.7,0,0,0-.4,3.38Z"/><path d="M11.06,158l-7.76-.83a1.87,1.87,0,0,1,.44-3.72l7.74,1a1.79,1.79,0,1,1-.42,3.55Zm-7.73-1.17,7.76.85a1.47,1.47,0,1,0,.35-2.91l-7.75-1a1.54,1.54,0,0,0-.36,3Z"/><path d="M10.35,166.74a1.62,1.62,0,1,0,.21-3.24l-7.79-.58a1.7,1.7,0,0,0-.22,3.4Z"/><path d="M10.34,166.91l-7.79-.42a1.87,1.87,0,0,1,.23-3.74l7.79.58a1.79,1.79,0,1,1-.23,3.58Zm-7.78-.76,7.8.43a1.46,1.46,0,1,0,.19-2.92l-7.79-.57a1.53,1.53,0,0,0-.2,3.06Z"/><path d="M10.1 175.69a1.63 1.63 0 1 0 0 -3.26l-7.81-.15a1.7 1.7 0 0 0 0 3.4"/><path d="M10.1,175.85H2.29a1.88,1.88,0,0,1,0-3.75l7.8.17a1.79,1.79,0,1,1,0,3.58Zm-7.8-.34h7.8a1.46,1.46,0,1,0,0-2.92l-7.81-.15a1.53,1.53,0,0,0,0,3.06Z"/><path d="M10.33,184.63a1.63,1.63,0,1,0-.14-3.25l-7.8.26a1.7,1.7,0,0,0,.15,3.4Z"/><path d="M10.34,184.79l-7.79.42a1.87,1.87,0,0,1-.16-3.74l7.8-.25a1.79,1.79,0,1,1,.15,3.57Zm-7.81.08,7.79-.4a1.47,1.47,0,1,0-.12-2.93l-7.8.27a1.53,1.53,0,0,0,.13,3.06Z"/><path d="M11,193.55a1.66,1.66,0,0,0,1.5-1.78,1.65,1.65,0,0,0-1.81-1.46L3,191a1.7,1.7,0,0,0,.33,3.39Z"/><path d="M11.06,193.71l-7.76.83a1.87,1.87,0,0,1-.36-3.73l7.77-.66a1.79,1.79,0,1,1,.35,3.56Zm-7.8.49,7.77-.81a1.47,1.47,0,1,0-.29-2.92L3,191.15a1.53,1.53,0,0,0,.3,3Z"/><path d="M12.23,202.41a1.62,1.62,0,1,0-.49-3.21L4,200.29a1.7,1.7,0,0,0,.52,3.36Z"/><path d="M12.26,202.57l-7.71,1.25a1.87,1.87,0,0,1-.56-3.7L11.72,199a1.79,1.79,0,1,1,.54,3.53Zm-7.76.92,7.71-1.24a1.46,1.46,0,1,0-.44-2.89L4,200.46a1.53,1.53,0,0,0,.46,3Z"/><path d="M13.9,211.2a1.63,1.63,0,1,0-.66-3.19l-7.66,1.51a1.71,1.71,0,0,0,.69,3.34Z"/><path d="M13.94,211.36,6.31,213a1.87,1.87,0,0,1-.76-3.67l7.66-1.5a1.79,1.79,0,1,1,.73,3.51Zm-7.7,1.33L13.87,211a1.47,1.47,0,1,0-.6-2.87l-7.66,1.52a1.53,1.53,0,0,0,.63,3Z"/><path d="M16.05,219.88a1.63,1.63,0,1,0-.84-3.15l-7.56,1.93A1.7,1.7,0,0,0,8.53,222Z"/><path d="M16.09,220l-7.52,2.08a1.87,1.87,0,0,1-1-3.62l7.56-1.91a1.79,1.79,0,1,1,.92,3.45Zm-7.61,1.76L16,219.72a1.47,1.47,0,1,0-.76-2.83l-7.56,1.93a1.54,1.54,0,0,0,.79,3Z"/><path d="M18.67,228.43a1.63,1.63,0,1,0-1-3.09l-7.45,2.33a1.7,1.7,0,0,0,1.06,3.24Z"/><path d="M18.72,228.58l-7.4,2.49a1.87,1.87,0,0,1-1.16-3.56l7.45-2.33a1.79,1.79,0,1,1,1.11,3.4Zm-7.51,2.17,7.41-2.48a1.46,1.46,0,1,0-.91-2.78l-7.45,2.34a1.54,1.54,0,0,0,1,2.92Z"/><path d="M21.75,236.82a1.65,1.65,0,0,0,1-2.11,1.67,1.67,0,0,0-2.14-.92l-7.31,2.74a1.7,1.7,0,0,0,1.23,3.17Z"/><path d="M21.81,237l-7.25,2.88a1.87,1.87,0,0,1-1.35-3.49l7.31-2.73A1.79,1.79,0,1,1,21.81,237Zm-7.38,2.56,7.26-2.87a1.48,1.48,0,0,0,.87-1.9,1.5,1.5,0,0,0-1.93-.83l-7.3,2.74a1.53,1.53,0,0,0,1.1,2.86Z"/><path d="M25.29,245a1.63,1.63,0,1,0-1.34-3L16.8,245.2a1.71,1.71,0,0,0,1.4,3.11Z"/><path d="M25.36,245.19l-7.09,3.27a1.87,1.87,0,0,1-1.54-3.41l7.15-3.12a1.79,1.79,0,1,1,1.48,3.26Zm-7.23,3,7.09-3.26A1.47,1.47,0,1,0,24,242.22l-7.14,3.14a1.53,1.53,0,0,0,1.26,2.79Z"/><path d="M29.27,253.05a1.66,1.66,0,0,0,.73-2.21,1.68,1.68,0,0,0-2.23-.68l-7,3.52a1.7,1.7,0,0,0,1.57,3Z"/><path d="M29.34,253.2l-6.89,3.65a1.88,1.88,0,0,1-1.73-3.33l7-3.5a1.79,1.79,0,1,1,1.64,3.18Zm-7,3.35,6.9-3.64a1.47,1.47,0,1,0-1.35-2.6l-7,3.52a1.53,1.53,0,0,0,1.41,2.72Z"/><path d="M33.68 260.84A1.63 1.63 0 1 0 32 258l-6.77 3.88A1.7 1.7 0 0 0 27 264.85"/><path d="m33.76 261l-6.69 4a1.87 1.87 0 0 1 -1.9 -3.23l6.77-3.88a1.79 1.79 0 1 1 1.82 3.11m-6.86 3.73l6.69-4a1.46 1.46 0 1 0 -1.49 -2.52l-6.76 3.89a1.5 1.5 0 0 0 -.52 2.08 1.52 1.52 0 0 0 2.08 .53"/><path d="M38.5,268.37a1.63,1.63,0,1,0-1.8-2.71l-6.55,4.25A1.71,1.71,0,0,0,32,272.75Z"/><path d="M38.59,268.51l-6.45,4.38a1.88,1.88,0,0,1-2.08-3.13l6.55-4.23a1.79,1.79,0,1,1,2,3Zm-6.65,4.09,6.47-4.36a1.46,1.46,0,1,0-1.62-2.44l-6.54,4.25a1.53,1.53,0,0,0,1.69,2.55Z"/><path d="M43.73 275.64A1.63 1.63 0 1 0 41.78 273l-6.31 4.59a1.7 1.7 0 0 0 2 2.73"/><path d="M43.83,275.77l-6.21,4.72a1.88,1.88,0,0,1-2.25-3l6.32-4.58a1.79,1.79,0,1,1,2.14,2.87Zm-6.42,4.45,6.22-4.71a1.47,1.47,0,1,0-1.75-2.35l-6.31,4.6a1.54,1.54,0,0,0,1.84,2.46Z"/><path d="M49.34,282.61a1.63,1.63,0,1,0-2.08-2.5l-6,4.92a1.7,1.7,0,0,0,2.18,2.62Z"/><path d="m49.45 282.74l-6 5a1.87 1.87 0 0 1 -2.4 -2.88l6-4.92a1.8 1.8 0 1 1 2.3 2.76m-6.07 4.82l5.95-5a1.46 1.46 0 1 0 -1.87 -2.25l-6 4.93a1.51 1.51 0 0 0 -.18 2.14 1.53 1.53 0 0 0 2.1 .18"/><path d="M55.32,289.27a1.65,1.65,0,0,0,.11-2.32,1.66,1.66,0,0,0-2.33-.06l-5.77,5.24a1.71,1.71,0,0,0,2.32,2.5Z"/><path d="M55.43,289.39l-5.66,5.36A1.88,1.88,0,0,1,47.21,292L53,286.77a1.79,1.79,0,1,1,2.43,2.62Zm-5.9,5.11,5.68-5.35a1.48,1.48,0,0,0,.1-2.09,1.5,1.5,0,0,0-2.1-.05l-5.77,5.25a1.53,1.53,0,0,0,2.09,2.24Z"/><path d="M61.65,295.6a1.64,1.64,0,0,0,0-2.32,1.66,1.66,0,0,0-2.33.06l-5.48,5.55a1.7,1.7,0,0,0,2.45,2.36Z"/><path d="M61.77,295.72l-5.37,5.65a1.84,1.84,0,0,1-2.63,0,1.82,1.82,0,0,1-.06-2.62l5.49-5.54a1.79,1.79,0,1,1,2.57,2.49Zm-5.62,5.42,5.38-5.65a1.46,1.46,0,1,0-2.1-2L54,299a1.53,1.53,0,0,0,2.2,2.14Z"/><path d="M68.32,301.59a1.63,1.63,0,1,0-2.46-2.14l-5.18,5.83a1.71,1.71,0,0,0,2.58,2.24Z"/><path d="m68.44 301.69l-5.06 5.94a1.88 1.88 0 0 1 -2.83 -2.46l5.18-5.82a1.83 1.83 0 0 1 2.56 -.21 1.81 1.81 0 0 1 .15 2.55m-5.31 5.72l5.06-5.93a1.46 1.46 0 1 0 -2.19 -1.92l-5.17 5.84a1.51 1.51 0 0 0 .16 2.14 1.53 1.53 0 0 0 2.14 -.13"/><path d="M75.29,307.2a1.63,1.63,0,1,0-2.57-2l-4.85,6.1a1.7,1.7,0,0,0,2.69,2.09Z"/><path d="m75.42 307.3l-4.73 6.2a1.87 1.87 0 0 1 -3 -2.3l4.86-6.1a1.84 1.84 0 0 1 2.54 -.34 1.81 1.81 0 0 1 .33 2.54m-5 6l4.74-6.19a1.46 1.46 0 1 0 -2.31 -1.8l-4.85 6.1a1.5 1.5 0 0 0 .28 2.13 1.52 1.52 0 0 0 2.14 -.25"/><path d="M82.56,312.43a1.62,1.62,0,1,0-2.67-1.85l-4.52,6.35a1.7,1.7,0,0,0,2.8,1.94Z"/><path d="M82.7,312.52,78.31,319a1.88,1.88,0,0,1-3.08-2.14l4.52-6.35a1.79,1.79,0,1,1,3,2ZM78,318.78l4.4-6.44A1.47,1.47,0,1,0,80,310.67L75.51,317a1.51,1.51,0,0,0,.39,2.11A1.53,1.53,0,0,0,78,318.78Z"/><path d="M90.1,317.26a1.63,1.63,0,1,0-2.77-1.71l-4.17,6.59a1.71,1.71,0,0,0,2.91,1.79Z"/><path d="M90.24,317.35l-4,6.67a1.87,1.87,0,0,1-3.19-2l4.18-6.58a1.79,1.79,0,1,1,3,1.88Zm-4.32,6.49,4-6.66a1.47,1.47,0,1,0-2.5-1.54l-4.16,6.59a1.53,1.53,0,0,0,2.61,1.61Z"/><path d="M97.9 321.68A1.63 1.63 0 1 0 95 320.12l-3.81 6.81a1.7 1.7 0 0 0 3 1.62"/><path d="M98,321.75l-3.66,6.88a1.88,1.88,0,0,1-3.3-1.79l3.81-6.8A1.79,1.79,0,1,1,98,321.75Zm-4,6.72,3.67-6.87a1.46,1.46,0,1,0-2.57-1.4L91.38,327a1.53,1.53,0,0,0,2.7,1.46Z"/><path d="M105.92,325.67a1.63,1.63,0,1,0-2.94-1.41l-3.43,7a1.71,1.71,0,0,0,3.08,1.47Z"/><path d="M106.07,325.73l-3.29,7.07a1.88,1.88,0,0,1-3.39-1.61l3.44-7a1.79,1.79,0,1,1,3.24,1.54Zm-3.6,6.93,3.3-7.06a1.47,1.47,0,1,0-2.65-1.26l-3.42,7a1.53,1.53,0,0,0,2.77,1.32Z"/><path d="M114.14,329.21a1.63,1.63,0,1,0-3-1.24l-3,7.18a1.71,1.71,0,0,0,3.16,1.29Z"/><path d="M114.3,329.27l-2.9,7.24a1.88,1.88,0,0,1-3.47-1.43l3-7.17a1.79,1.79,0,1,1,3.32,1.36Zm-3.21,7.11,2.9-7.23a1.46,1.46,0,1,0-2.71-1.11l-3,7.18a1.54,1.54,0,0,0,2.85,1.16Z"/><path d="M122.55,332.3a1.63,1.63,0,1,0-3.08-1.07l-2.64,7.33a1.71,1.71,0,0,0,3.22,1.13Z"/><path d="M122.7,332.36l-2.49,7.38a1.88,1.88,0,0,1-3.54-1.24l2.65-7.32a1.79,1.79,0,1,1,3.38,1.18Zm-2.81,7.27,2.51-7.38a1.47,1.47,0,1,0-2.77-1L117,338.62a1.54,1.54,0,0,0,2.9,1Z"/><path d="M131.11 334.93A1.63 1.63 0 1 0 128 334l-2.24 7.46a1.71 1.71 0 0 0 3.28 .95"/><path d="M131.27,335l-2.08,7.5a1.88,1.88,0,0,1-3.61-1l2.25-7.46a1.79,1.79,0,1,1,3.44,1Zm-2.41,7.41,2.1-7.5a1.47,1.47,0,1,0-2.82-.81l-2.23,7.46a1.54,1.54,0,0,0,3,.85Z"/><path d="M139.81,337.09a1.65,1.65,0,0,0-1.22-2,1.66,1.66,0,0,0-2,1.25l-1.83,7.58a1.71,1.71,0,0,0,3.33.76Z"/><path d="M140,337.13l-1.67,7.61a1.88,1.88,0,0,1-3.66-.84l1.83-7.58a1.8,1.8,0,1,1,3.5.81Zm-2,7.53,1.69-7.6a1.47,1.47,0,1,0-2.86-.66L135,344a1.53,1.53,0,0,0,3,.68Z"/><path d="M148.61,338.78a1.63,1.63,0,1,0-3.21-.56L144,345.88a1.71,1.71,0,0,0,3.37.59Z"/><path d="M148.77,338.8l-1.25,7.69a1.88,1.88,0,0,1-3.7-.64l1.42-7.66a1.79,1.79,0,1,1,3.53.61Zm-1.59,7.64,1.27-7.69a1.47,1.47,0,1,0-2.89-.5l-1.41,7.66a1.54,1.54,0,0,0,3,.53Z"/><path d="M157.49,340a1.63,1.63,0,1,0-3.24-.38l-1,7.73a1.71,1.71,0,0,0,3.39.4Z"/><path d="M157.65,340l-.83,7.74a1.86,1.86,0,0,1-2.09,1.62,1.84,1.84,0,0,1-1.64-2.05l1-7.73a1.79,1.79,0,1,1,3.56.42Zm-1.17,7.71.85-7.75a1.47,1.47,0,1,0-2.92-.34l-1,7.73a1.54,1.54,0,0,0,3,.36Z"/><path d="M166.42,340.71a1.63,1.63,0,1,0-3.25-.21l-.58,7.77a1.71,1.71,0,0,0,3.41.22Z"/><path d="M166.58,340.72l-.41,7.78a1.88,1.88,0,0,1-3.75-.24l.59-7.77a1.79,1.79,0,1,1,3.57.23Zm-.75,7.76.43-7.78a1.47,1.47,0,1,0-2.93-.19l-.57,7.77a1.54,1.54,0,0,0,3.07.2Z"/><path d="M175.38 341a1.63 1.63 0 1 0 -3.26 0l-.16 7.79a1.71 1.71 0 0 0 3.42 0"/><path d="m175.55 341v7.79a1.88 1.88 0 0 1 -3.76 -.05l.17-7.78a1.8 1.8 0 1 1 3.59 0m-.35 7.82v-7.79a1.47 1.47 0 1 0 -2.93 0l-.16 7.79a1.54 1.54 0 0 0 3.07 0"/><path d="M184.35,340.72a1.63,1.63,0,1,0-3.26.14l.25,7.79a1.71,1.71,0,0,0,3.41-.14Z"/><path d="M184.51,340.72l.41,7.78a1.88,1.88,0,0,1-3.75.15l-.25-7.78a1.8,1.8,0,1,1,3.59-.15Zm.07,7.79-.4-7.78a1.47,1.47,0,1,0-2.93.13l.26,7.78a1.52,1.52,0,0,0,1.6,1.45A1.51,1.51,0,0,0,184.58,348.51Z"/><path d="M193.28,340a1.66,1.66,0,0,0-1.78-1.5,1.65,1.65,0,0,0-1.46,1.81l.67,7.76a1.71,1.71,0,0,0,3.4-.33Z"/><path d="M193.44,340l.84,7.74a1.88,1.88,0,0,1-3.74.37l-.67-7.77a1.79,1.79,0,1,1,3.57-.34Zm.5,7.78-.82-7.75a1.47,1.47,0,1,0-2.92.29l.68,7.76a1.54,1.54,0,0,0,3.06-.3Z"/><path d="M202.16,338.83a1.63,1.63,0,1,0-3.22.49L200,347a1.71,1.71,0,0,0,3.38-.51Z"/><path d="M202.32,338.8l1.26,7.69a1.88,1.88,0,0,1-3.72.57l-1.08-7.72a1.79,1.79,0,1,1,3.54-.54Zm.92,7.75-1.24-7.7a1.47,1.47,0,1,0-2.9.44l1.1,7.72a1.54,1.54,0,0,0,3-.46Z"/><path d="M211,337.16a1.63,1.63,0,1,0-3.2.66l1.52,7.65a1.71,1.71,0,0,0,3.34-.69Z"/><path d="M211.12,337.13l1.68,7.61a1.88,1.88,0,0,1-3.68.76l-1.51-7.65a1.79,1.79,0,1,1,3.51-.72Zm1.34,7.68-1.65-7.61a1.47,1.47,0,1,0-2.88.59l1.52,7.64a1.54,1.54,0,0,0,3-.62Z"/><path d="M219.66,335a1.63,1.63,0,1,0-3.15.83l1.93,7.55a1.71,1.71,0,0,0,3.3-.87Z"/><path d="M219.82,335l2.08,7.51a1.87,1.87,0,0,1-3.62,1l-1.92-7.55a1.79,1.79,0,1,1,3.46-.92Zm1.76,7.6-2.07-7.51a1.47,1.47,0,1,0-2.84.75l1.94,7.55a1.54,1.54,0,0,0,3-.79Z"/><path d="M228.23,332.41a1.63,1.63,0,1,0-3.1,1l2.34,7.43a1.71,1.71,0,0,0,3.25-1Z"/><path d="M228.39,332.35l2.49,7.39a1.88,1.88,0,0,1-3.57,1.16L225,333.46a1.79,1.79,0,1,1,3.41-1.11Zm2.16,7.5-2.47-7.39a1.47,1.47,0,1,0-2.79.9l2.34,7.43a1.53,1.53,0,0,0,2.92-.94Z"/><path d="M236.65,329.33a1.63,1.63,0,1,0-3.05,1.17l2.74,7.3a1.71,1.71,0,0,0,3.19-1.23Z"/><path d="M236.8,329.27l2.89,7.24a1.88,1.88,0,0,1-3.5,1.35l-2.74-7.3a1.8,1.8,0,1,1,3.35-1.29Zm2.57,7.36-2.88-7.24a1.46,1.46,0,1,0-2.73,1.05l2.75,7.3a1.53,1.53,0,0,0,2.86-1.11Z"/><path d="M244.88,325.8a1.63,1.63,0,1,0-3,1.34l3.13,7.13a1.71,1.71,0,0,0,3.11-1.4Z"/><path d="M245,325.73l3.28,7.07a1.88,1.88,0,0,1-3.42,1.54l-3.13-7.14a1.79,1.79,0,1,1,3.27-1.47Zm3,7.21-3.27-7.07a1.49,1.49,0,0,0-1.95-.76,1.47,1.47,0,0,0-.72,2l3.14,7.13a1.54,1.54,0,0,0,2.8-1.26Z"/><path d="M252.91,321.83a1.63,1.63,0,1,0-2.9,1.49l3.52,7a1.71,1.71,0,0,0,3-1.57Z"/><path d="M253.05,321.75l3.66,6.88a1.87,1.87,0,0,1-3.33,1.72l-3.51-7a1.79,1.79,0,1,1,3.18-1.65Zm3.36,7-3.65-6.88a1.46,1.46,0,1,0-2.6,1.34l3.52,6.95a1.54,1.54,0,0,0,2.73-1.41Z"/><path d="M260.71,317.43a1.63,1.63,0,1,0-2.81,1.65l3.89,6.75a1.71,1.71,0,0,0,2.94-1.73Z"/><path d="M260.85,317.34l4,6.68a1.88,1.88,0,0,1-3.24,1.9l-3.88-6.76a1.79,1.79,0,1,1,3.09-1.82Zm3.74,6.85-4-6.68A1.47,1.47,0,1,0,258,319l3.9,6.75a1.54,1.54,0,0,0,2.65-1.56Z"/><path d="M268.26,312.61a1.63,1.63,0,1,0-2.72,1.8l4.25,6.53a1.71,1.71,0,0,0,2.85-1.88Z"/><path d="M268.39,312.52l4.39,6.45a1.85,1.85,0,0,1-.54,2.57,1.87,1.87,0,0,1-2.59-.5l-4.24-6.54a1.79,1.79,0,1,1,3-2Zm4.11,6.64-4.38-6.45a1.46,1.46,0,1,0-2.44,1.61l4.26,6.53a1.53,1.53,0,0,0,2.56-1.69Z"/><path d="M275.54,307.4a1.66,1.66,0,0,0-2.3-.37,1.65,1.65,0,0,0-.31,2.31l4.59,6.29a1.71,1.71,0,0,0,2.74-2Z"/><path d="M275.67,307.3l4.73,6.2a1.87,1.87,0,0,1-3,2.23l-4.6-6.29a1.79,1.79,0,1,1,2.88-2.14Zm4.45,6.4-4.71-6.21a1.49,1.49,0,0,0-2.07-.32,1.47,1.47,0,0,0-.28,2.07l4.6,6.29a1.53,1.53,0,0,0,2.46-1.83Z"/><path d="M282.53,301.8a1.66,1.66,0,0,0-2.32-.24,1.64,1.64,0,0,0-.19,2.31l4.93,6a1.71,1.71,0,0,0,2.63-2.17Z"/><path d="M282.65,301.69l5.06,5.94a1.88,1.88,0,0,1-2.89,2.39l-4.93-6a1.79,1.79,0,1,1,2.76-2.29Zm4.8,6.16-5.05-6a1.46,1.46,0,1,0-2.25,1.87l4.94,6a1.53,1.53,0,0,0,2.36-1.95Z"/><path d="M289.2,295.83a1.63,1.63,0,1,0-2.39,2.21l5.25,5.76a1.68,1.68,0,0,0,2.4.07,1.66,1.66,0,0,0,.1-2.38Z"/><path d="M289.32,295.71l5.37,5.66a1.88,1.88,0,0,1-2.75,2.55l-5.25-5.77a1.79,1.79,0,1,1,2.63-2.44Zm5.12,5.89-5.36-5.66a1.47,1.47,0,1,0-2.15,2l5.26,5.76a1.54,1.54,0,0,0,2.25-2.09Z"/><path d="M295.55,289.51a1.67,1.67,0,0,0-2.34,0,1.65,1.65,0,0,0,.07,2.32l5.55,5.48a1.71,1.71,0,0,0,2.38-2.45Z"/><path d="M295.66,289.39l5.66,5.36a1.84,1.84,0,0,1,0,2.63,1.87,1.87,0,0,1-2.64.06L293.16,292a1.83,1.83,0,0,1-.07-2.56A1.85,1.85,0,0,1,295.66,289.39Zm5.43,5.61-5.66-5.37a1.46,1.46,0,1,0-2,2.1L299,297.2a1.53,1.53,0,0,0,2.14-2.2Z"/><path d="M301.54,282.86a1.63,1.63,0,1,0-2.14,2.45l5.84,5.17a1.7,1.7,0,0,0,2.24-2.57Z"/><path d="M301.64,282.73l5.95,5a1.87,1.87,0,0,1-2.46,2.83l-5.84-5.17a1.79,1.79,0,1,1,2.35-2.71Zm5.73,5.31L301.43,283a1.46,1.46,0,1,0-1.92,2.21l5.85,5.16a1.53,1.53,0,0,0,2-2.31Z"/><path d="M307.16,275.9a1.62,1.62,0,1,0-2,2.56l6.11,4.85a1.69,1.69,0,0,0,2.38-.32,1.67,1.67,0,0,0-.28-2.37Z"/><path d="M307.26,275.77l6.21,4.72a1.87,1.87,0,0,1-2.3,2.95l-6.11-4.85a1.79,1.79,0,1,1,2.2-2.82Zm6,5-6.2-4.74a1.51,1.51,0,0,0-2.09.24,1.48,1.48,0,0,0,.28,2.07l6.12,4.84a1.53,1.53,0,0,0,1.89-2.41Z"/><path d="M312.41,268.64a1.66,1.66,0,0,0-2.3.39,1.64,1.64,0,0,0,.44,2.28l6.36,4.51a1.71,1.71,0,0,0,1.95-2.8Z"/><path d="m312.5 268.51l6.46 4.37a1.88 1.88 0 0 1 -2.15 3.08l-6.36-4.52a1.79 1.79 0 1 1 2.05 -2.93m6.26 4.66l-6.45-4.4a1.47 1.47 0 1 0 -1.67 2.41l6.37 4.5a1.53 1.53 0 0 0 2.12 -.39 1.51 1.51 0 0 0 -.37 -2.12"/><path d="M317.25,261.11a1.68,1.68,0,0,0-2.28.51,1.66,1.66,0,0,0,.56,2.26l6.6,4.16a1.71,1.71,0,0,0,1.8-2.9Z"/><path d="M317.33,261l6.69,4a1.87,1.87,0,0,1-2,3.18L315.45,264a1.79,1.79,0,1,1,1.88-3Zm6.51,4.32-6.68-4a1.46,1.46,0,1,0-1.54,2.49l6.6,4.16a1.54,1.54,0,0,0,1.62-2.61Z"/><path d="M321.67,253.34a1.62,1.62,0,1,0-1.56,2.85l6.82,3.8a1.7,1.7,0,0,0,1.63-3Z"/><path d="M321.75,253.19l6.89,3.66a1.87,1.87,0,0,1-1.79,3.29l-6.82-3.8a1.79,1.79,0,1,1,1.72-3.15Zm6.73,4-6.89-3.67a1.46,1.46,0,1,0-1.4,2.57l6.82,3.79a1.53,1.53,0,0,0,1.47-2.69Z"/><path d="M325.67,245.33a1.68,1.68,0,0,0-2.21.76,1.65,1.65,0,0,0,.8,2.18l7,3.42a1.7,1.7,0,0,0,1.47-3.07Z"/><path d="M325.74,245.19l7.08,3.27a1.87,1.87,0,0,1-1.62,3.38l-7-3.43a1.79,1.79,0,1,1,1.55-3.22Zm6.94,3.58-7.08-3.29a1.5,1.5,0,0,0-2,.68,1.49,1.49,0,0,0,.73,2l7,3.42a1.54,1.54,0,0,0,1.33-2.77Z"/><path d="M329.22,237.12a1.63,1.63,0,1,0-1.24,3l7.19,3a1.7,1.7,0,0,0,1.3-3.15Z"/><path d="M329.28,237l7.25,2.89a1.87,1.87,0,0,1-1.43,3.46l-7.18-3a1.79,1.79,0,1,1,1.36-3.31Zm7.12,3.2-7.24-2.89A1.46,1.46,0,1,0,328,240l7.2,3a1.53,1.53,0,0,0,1.16-2.84Z"/><path d="M332.32,228.74a1.62,1.62,0,1,0-1.08,3.06l7.35,2.64a1.7,1.7,0,0,0,1.13-3.21Z"/><path d="M332.37,228.58l7.4,2.49a1.87,1.87,0,0,1-1.24,3.53L331.19,232a1.79,1.79,0,1,1,1.18-3.38Zm7.29,2.81-7.39-2.5a1.46,1.46,0,1,0-1,2.76l7.35,2.63a1.53,1.53,0,0,0,1-2.89Z"/><path d="M335,220.19a1.62,1.62,0,1,0-.9,3.12l7.48,2.24a1.7,1.7,0,0,0,.94-3.27Z"/><path d="M335,220l7.52,2.08a1.87,1.87,0,0,1-1,3.6L334,223.47a1.79,1.79,0,1,1,1-3.44Zm7.43,2.41-7.52-2.1a1.47,1.47,0,1,0-.81,2.82l7.48,2.23a1.54,1.54,0,0,0,.85-2.95Z"/><path d="M337.12,211.51a1.63,1.63,0,1,0-.73,3.17l7.59,1.83a1.7,1.7,0,0,0,.76-3.32Z"/><path d="M337.15,211.35l7.63,1.67a1.87,1.87,0,0,1-.84,3.65l-7.59-1.83a1.79,1.79,0,1,1,.8-3.49Zm7.55,2-7.62-1.68a1.46,1.46,0,1,0-.66,2.85l7.59,1.82a1.53,1.53,0,0,0,.69-3Z"/><path d="M338.81,202.73a1.62,1.62,0,1,0-.56,3.2l7.67,1.41a1.7,1.7,0,0,0,.59-3.35Z"/><path d="M338.83,202.57l7.71,1.25a1.87,1.87,0,0,1-.65,3.69l-7.67-1.42a1.79,1.79,0,1,1,.61-3.52Zm7.65,1.59-7.7-1.27a1.46,1.46,0,1,0-.5,2.88l7.67,1.41a1.53,1.53,0,0,0,.53-3Z"/><path d="M340,193.87a1.63,1.63,0,1,0-.38,3.23l7.74,1a1.7,1.7,0,0,0,.4-3.38Z"/><path d="M340,193.71l7.76.83a1.87,1.87,0,0,1-.44,3.72l-7.74-1a1.79,1.79,0,1,1,.42-3.55Zm7.72,1.17L340,194a1.47,1.47,0,1,0-.34,2.91l7.75,1a1.53,1.53,0,0,0,.35-3Z"/><path d="M340.74,185a1.63,1.63,0,1,0-.21,3.25l7.79.57a1.7,1.7,0,0,0,.21-3.39Z"/><path d="M340.75,184.79l7.79.42a1.87,1.87,0,0,1-.24,3.73l-7.78-.58a1.79,1.79,0,1,1,.23-3.57Zm7.77.76-7.79-.43a1.46,1.46,0,1,0-.19,2.92l7.79.56a1.53,1.53,0,0,0,.19-3Z"/><path d="M341 176a1.63 1.63 0 1 0 0 3.25l7.81.16a1.7 1.7 0 0 0 0 -3.4"/><path d="M341,175.85h7.81a1.87,1.87,0,0,1-.05,3.74l-7.8-.16a1.79,1.79,0,1,1,0-3.58Zm7.8.34-7.8,0a1.47,1.47,0,1,0,0,2.93l7.81.15a1.53,1.53,0,0,0,0-3.06Z"/></g><path d="m201.4 90.29l-33 48v34s31-6 33 21c0 0 22 8 42-3v-15s-4-21-25-30l7.6-10.41a23.84 23.84 0 0 0 4.69 -14.94c-.23-6.62-2.71-14.85-12.32-19.65" fill="url(#3)" stroke="#fffae5" stroke-width="4" stroke-miterlimit="10"/><path d="m170.4 139.29v31s31-5 33 22a56.58 56.58 0 0 0 38 -3v-14s-4-23-32-32c-14-5-29-5-38.63-4.16" fill="url(#4)"/><path fill="#fce5a6" d="m136.88 294.95l-7.61 1.46.86 7.71-5.89-5.04-5.48 5.47.27-7.75-7.7-.88 6.22-4.61-4.11-6.57 7.49 1.99 2.57-7.31 3.11 7.09 7.32-2.55-3.6 6.86 6.55 4.13"/><path fill="#ffefc2" d="m97.93 273.66l-7.62-1.42-2.01 7.48-3.64-6.84-7.11 3.09 3.08-7.11-6.85-3.63 7.48-2.03-1.43-7.61 6.25 4.58 5.06-5.86.31 7.74 7.75.3-5.86 5.07 4.59 6.24"/><path fill="#fee5ae" d="m72.85 232.13l-7.63 1.36.75 7.71-5.82-5.11-5.56 5.39.38-7.74-7.69-.98 6.28-4.53-4.02-6.62 7.46 2.08 2.67-7.27 3.02 7.13 7.35-2.45-3.69 6.81 6.5 4.22"/><path fill="#fedf8b" d="m62.85 188.13l-7.63 1.36.75 7.71-5.82-5.11-5.56 5.39.38-7.74-7.69-.98 6.28-4.53-4.02-6.62 7.46 2.08 2.67-7.27 3.02 7.13 7.35-2.45-3.69 6.81 6.5 4.22"/><path fill="#f4d37d" d="m64.85 145.13l-7.63 1.36.75 7.71-5.82-5.11-5.56 5.39.38-7.74-7.69-.98 6.28-4.53-4.02-6.62 7.46 2.08 2.67-7.27 3.02 7.13 7.35-2.45-3.69 6.81 6.5 4.22"/><g fill="#edc571"><path d="m84.85 103.13l-7.63 1.36.75 7.71-5.82-5.11-5.56 5.39.38-7.74-7.69-.98 6.28-4.53-4.02-6.62 7.46 2.08 2.67-7.27 3.02 7.13 7.35-2.45-3.69 6.81 6.5 4.22"/><path d="m116.09 72.49l-7.75-.04-.65 7.73-4.8-6.09-6.44 4.31 1.76-7.54-7.38-2.35 6.99-3.33-2.76-7.24 6.96 3.4 3.93-6.68 1.69 7.56 7.67-1.08-4.86 6.03 5.64 5.32"/></g><path fill="#fdebb9" d="m281.09 87.29l-7.75-.04-.65 7.72-4.8-6.08-6.44 4.31 1.76-7.54-7.38-2.35 6.99-3.33-2.76-7.24 6.96 3.4 3.93-6.68 1.69 7.56 7.67-1.08-4.86 6.03 5.64 5.32"/><g fill="#fbe092"><path d="m245.09 59.29l-7.75-.04-.65 7.72-4.8-6.08-6.44 4.31 1.76-7.54-7.38-2.35 6.99-3.33-2.76-7.24 6.96 3.4 3.93-6.68 1.69 7.56 7.67-1.08-4.86 6.03 5.64 5.32"/><path d="m207.09 46.29l-7.75-.04-.65 7.73-4.8-6.09-6.44 4.31 1.76-7.54-7.38-2.35 6.99-3.33-2.76-7.24 6.96 3.4 3.93-6.68 1.69 7.56 7.67-1.08-4.86 6.03 5.64 5.32"/></g><path fill="#fdebb9" d="m161.09 49.29l-7.75-.04-.65 7.73-4.8-6.09-6.44 4.31 1.76-7.54-7.38-2.35 6.99-3.33-2.76-7.24 6.96 3.4 3.93-6.68 1.69 7.56 7.67-1.08-4.86 6.03 5.64 5.32"/><path fill="#ffebb9" d="m308.09 123.29l-7.75-.04-.65 7.72-4.8-6.08-6.44 4.31 1.76-7.54-7.38-2.35 6.99-3.33-2.76-7.24 6.96 3.4 3.93-6.68 1.69 7.56 7.67-1.08-4.86 6.03 5.64 5.32"/><path fill="#fde39c" d="m321.09 168.29l-7.75-.04-.65 7.72-4.8-6.08-6.44 4.31 1.76-7.54-7.38-2.35 6.99-3.33-2.76-7.24 6.96 3.4 3.93-6.68 1.69 7.56 7.67-1.08-4.86 6.03 5.64 5.32"/><path fill="#fade8b" d="m317.09 213.29l-7.75-.04-.65 7.72-4.8-6.08-6.44 4.31 1.76-7.54-7.38-2.35 6.99-3.33-2.76-7.24 6.96 3.4 3.93-6.68 1.69 7.56 7.67-1.08-4.86 6.03 5.64 5.32"/><path fill="#f5d487" d="m299.09 252.29l-7.75-.04-.65 7.73-4.8-6.09-6.44 4.31 1.76-7.54-7.38-2.35 6.99-3.33-2.76-7.24 6.96 3.4 3.93-6.68 1.69 7.56 7.67-1.08-4.86 6.03 5.64 5.32"/><path fill="#eece78" d="m267.09 285.29l-7.75-.04-.65 7.73-4.8-6.09-6.44 4.31 1.76-7.54-7.38-2.35 6.99-3.33-2.76-7.24 6.96 3.4 3.93-6.68 1.69 7.56 7.67-1.08-4.86 6.03 5.64 5.32"/><path fill="#fade8e" d="m180.09 308.29l-7.75-.04-.65 7.73-4.8-6.09-6.44 4.31 1.76-7.54-7.38-2.35 6.99-3.33-2.76-7.24 6.96 3.4 3.93-6.68 1.69 7.56 7.67-1.08-4.86 6.03 5.64 5.32"/><path fill="#f8d980" d="m225.09 304.29l-7.75-.04-.65 7.73-4.8-6.09-6.44 4.31 1.76-7.54-7.38-2.35 6.99-3.33-2.76-7.24 6.96 3.4 3.93-6.68 1.69 7.56 7.67-1.08-4.86 6.03 5.64 5.32"/><path d="M111.4,78.29l3.9,158.84a23.55,23.55,0,0,0,3,11.1c5.61,9.83,21.31,26.48,63.1,25.06,0,0,32.33,1.47,52.9-21.41a36.4,36.4,0,0,0,9.1-24.36V210.29s-25-6-39,2c0,0-1,23-18,26,0,0-16,2-26-3L157.9,104.6a26.82,26.82,0,0,0-26.82-26.31Z" fill="url(#5)" stroke="#fffae5" stroke-width="4" stroke-miterlimit="10"/></svg>