<?xml version="1.0" encoding="iso-8859-1"?>
<!-- Generator: Adobe Illustrator 16.0.0, SVG Export Plug-In . SVG Version: 6.00 Build 0)  -->
<!DOCTYPE svg PUBLIC "-//W3C//DTD SVG 1.1//EN" "http://www.w3.org/Graphics/SVG/1.1/DTD/svg11.dtd">
<svg version="1.1" id="Capa_1" xmlns="http://www.w3.org/2000/svg" xmlns:xlink="http://www.w3.org/1999/xlink" x="0px" y="0px"
	 width="22px" height="22px" viewBox="0 0 612 612" style="enable-background:new 0 0 612 612;" xml:space="preserve" fill="#24c870">
<g>
	<g id="calc">
		<g>
			<path d="M344.25,306h-76.5v76.5h76.5V306z M459,306h-76.5v191.25H459V306z M344.25,420.75h-76.5v76.5h76.5V420.75z M554.625,0
				H57.375C25.685,0,0,25.685,0,57.375v497.25C0,586.315,25.685,612,57.375,612h497.25c31.69,0,57.375-25.685,57.375-57.375V57.375
				C612,25.685,586.315,0,554.625,0z M535.5,516.375c0,10.557-8.568,19.125-19.125,19.125H95.625
				c-10.557,0-19.125-8.568-19.125-19.125V267.75h459V516.375z M535.5,191.25h-459V95.625c0-10.557,8.568-19.125,19.125-19.125
				h420.75c10.557,0,19.125,8.568,19.125,19.125V191.25z M229.5,420.75H153v76.5h76.5V420.75z M229.5,306H153v76.5h76.5V306z"/>
		</g>
	</g>
</g>
<g>
</g>
<g>
</g>
<g>
</g>
<g>
</g>
<g>
</g>
<g>
</g>
<g>
</g>
<g>
</g>
<g>
</g>
<g>
</g>
<g>
</g>
<g>
</g>
<g>
</g>
<g>
</g>
<g>
</g>
</svg>
