<svg version="1.1" id="Layer_1" x="0px" y="0px" viewBox="0 0 30 18" xmlns="http://www.w3.org/2000/svg" xmlns:xlink="http://www.w3.org/1999/xlink">
	<path fill="#f69f11" d="M24,2v15c0,0.6-0.4,1-1,1s-1-0.4-1-1V2c0-0.6,0.4-1,1-1S24,1.4,24,2z"></path>
	<path fill="#f69f11" d="M23.7,0.3l6,6c0.4,0.4,0.4,1,0,1.4s-1,0.4-1.4,0L23,2.4l-5.3,5.3c-0.4,0.4-1,0.4-1.4,0s-0.4-1,0-1.4l6-6 C22.5,0.1,22.7,0,23,0S23.5,0.1,23.7,0.3z"></path>
	<path fill="#f69f11" d="M6,16V1c0-0.6,0.4-1,1-1s1,0.4,1,1v15c0,0.6-0.4,1-1,1S6,16.6,6,16z"></path>
	<path fill="#f69f11" d="M6.3,17.7l-6-6c-0.4-0.4-0.4-1,0-1.4s1-0.4,1.4,0L7,15.6l5.3-5.3c0.4-0.4,1-0.4,1.4,0c0.4,0.4,0.4,1,0,1.4l-6,6 C7.5,17.9,7.3,18,7,18S6.5,17.9,6.3,17.7z"></path></svg>