<svg width="168" height="31" viewBox="0 0 168 31" xmlns="http://www.w3.org/2000/svg" xmlns:xlink="http://www.w3.org/1999/xlink">
  <title>
    Apogee Crypto
  </title>
  <defs>
    <path d="M118.779345.441288h18.55709L135.43331 3.96267h-13.027783v13.114357h14.959128V20.5987h-18.58531V.441287zm6.25251 8.429054h11.505163l-1.3216 2.966754h-10.183563V8.870342z" id="a"/>
  </defs>
  <g fill="none" fill-rule="evenodd">
    <g transform="translate(0 10)">
      <path d="M30.13091.28422c-.731346.120246-1.419637.66567-1.918546 1.01663L.27549 20.5987h6.196365L29.57091 5.12745v7.541014h-6.352583L19.14589 15.52475h10.40582l-.013673 5.073947h4.231273l-.097455-19.29785c.007563-.35096-.0768-.627987-.253382-.831946-.177164-.2028-.49949-.30522-.968727-.30522-.468946 0-1.588364 0-2.318837.12054zm8.057017.157355V20.5987h3.6256V3.96267H52.784c1.272436 0 2.265018.341755 2.977164 1.025837.712727.68437 1.06909 1.608082 1.06909 2.772575 0 1.164493-.356945 2.093384-1.070545 2.786384-.7139.693575-1.70851 1.03993-2.98328 1.03993h-8.33658l1.32189 3.41063h7.01469c1.19913 0 2.26938-.18037 3.21163-.54082.94225-.360453 1.73643-.864165 2.38371-1.511425.64669-.64668 1.14181-1.41793 1.48451-2.31489.3424-.89638.51403-1.89.51403-2.98085 0-1.10868-.17164-2.10719-.51404-2.99437-.34269-.88689-.83782-1.6403-1.48451-2.25965-.64728-.61907-1.44146-1.09948-2.38371-1.44181-.94225-.34204-2.01251-.51263-3.21163-.51263h-14.5885z" fill="#FFF"/>
      <path d="M78.422196 17.077344c.951564 0 1.82691-.166562 2.626328-.49911.799418-.332835 1.489163-.790233 2.07011-1.37248.580362-.582246 1.032144-1.27985 1.355926-2.093383.32349-.81324.485527-1.6915.485527-2.63391 0-.9427-.162036-1.81607-.485527-2.62039-.323782-.80404-.775564-1.49244-1.355927-2.06576-.580946-.57246-1.27069-1.02094-2.07011-1.34457-.799418-.32334-1.674763-.4853-2.626327-.4853h-5.05309c-.932655 0-1.794037.16196-2.583564.4853-.79011.32363-1.470546.77211-2.0416 1.34458-.570473.573327-1.018182 1.25741-1.341673 2.051957-.32379.794835-.48524 1.673383-.48524 2.634204 0 .94241.16145 1.82067.48523 2.633915.32349.81354.7712 1.51114 1.34167 2.093388.57105.582248 1.25149 1.039646 2.0416 1.37248.78952.33255 1.65091.49911 2.58356.49911h5.05309zm-5.05309 3.521383c-1.4464 0-2.78342-.263507-4.011055-.790233-1.22763-.527013-2.29352-1.247917-3.19738-2.162712-.90443-.915082-1.60872-2.000753-2.11258-3.258164-.50472-1.256836-.75665-2.61522-.75665-4.075726 0-1.47863.25193-2.828096.75666-4.04811.50386-1.220014 1.20815-2.259657 2.11258-3.11922.90386-.85956 1.96975-1.524944 3.19738-1.996437 1.22764-.471205 2.56466-.70681 4.01106-.70681h5.05309c1.50313 0 2.87884.240495 4.12539.720906 1.24626.4807 2.31709 1.155 3.21164 2.02377.894548.86906 1.588948 1.90899 2.084075 3.11951.494836 1.21081.7424 2.54647.7424 4.0064 0 1.46051-.25251 2.81889-.756655 4.07573-.504437 1.25741-1.208727 2.34308-2.11258 3.25817-.904144.9148-1.97498 1.6357-3.211925 2.16271-1.23724.52673-2.59753.79024-4.08233.79024h-5.05309z" fill="#f69f11"/>
      <path d="M101.942662 20.598497c-1.444655 0-2.779927-.263507-4.005818-.790233-1.226182-.526726-2.290618-1.24763-3.19331-2.162712-.903272-.914794-1.60669-2.000466-2.109963-3.257877-.50385-1.256548-.75578-2.61522-.75578-4.075726 0-1.47863.25222-2.8281.75666-4.04811.50386-1.22002 1.20815-2.25995 2.11258-3.11922.90357-.85956 1.96975-1.52524 3.19738-1.99644 1.22764-.47121 2.56437-.7071 4.01106-.7071h9.34488l1.90313 3.52138h-11.248c-.93265 0-1.79403.16196-2.58356.4853-.79011.32363-1.47025.77211-2.04131 1.34457-.57076.57333-1.01818 1.25741-1.34167 2.05196-.32407.79483-.48553 1.67309-.48553 2.63392 0 .9427.16146 1.82096.48553 2.6342.32349.81353.77091 1.51085 1.34168 2.09309.57105.58253 1.2512 1.03993 2.041306 1.37248.789526.33283 1.65091.49911 2.583563.49911h8.878546v-5.24022h-5.55724l-1.90342-2.96675h11.08654v11.72836h-12.51724z" fill="#FFF"/>
      <use fill="#FFF" xlink:href="#a"/>
      <path d="M147.651462 11.836894V8.87014h11.505163l-1.3216 2.966755h-10.183563zm-6.252218 8.761603V.441087h18.5568l-1.90342 3.521383h-13.02749v13.114644h14.95942v3.521383h-18.58531z" fill="#FFF"/>
    </g>
    <path d="M149 5.6875V0h1.94922c.64323 0 1.13281.128905 1.46875.38672.335938.257813.503905.641923.503905 1.152343 0 .260417-.070312.49479-.210937.703124-.140626.208335-.346353.369792-.617188.484376.307293.083333.54492.240233.71289.470703.16797.23047.251954.50716.251954.830078 0 .533857-.171222.94401-.513672 1.230468-.34245.28646-.83268.429688-1.470703.429688H149zm.98828-2.566406v1.777344h1.097658c.309897 0 .552082-.076823.726562-.23047.17448-.153646.26172-.367185.26172-.640624 0-.59115-.302082-.89323-.90625-.90625h-1.17969zm0-.726563h.96875c.307294 0 .547526-.06966.720704-.20898.173178-.13932.259766-.33658.259766-.59179 0-.28125-.080077-.48437-.240234-.60937-.160157-.125-.409504-.1875-.748047-.1875h-.96094v1.59765zm7.382814.75391h-2.335938v1.75h2.73047v.78906h-3.71875V0h3.691405v.796875h-2.70312v1.570313h2.33594v.78125zm5.386718-2.35156h-1.773437V5.6875h-.98047V.796875h-1.75781V0h4.511717v.796875zm3.460938 3.56641h-2.203125l-.460937 1.32422h-1.027344L164.67578 0h.88672l2.152344 5.6875h-1.03125l-.464844-1.32422zm-1.92578-.79687h1.648436l-.824218-2.35937-.82422 2.35938z" fill="#f69f11"/>
  </g>
</svg>