<?xml version="1.0" encoding="utf-8"?>
<!DOCTYPE svg PUBLIC "-//W3C//DTD SVG 1.1//EN" "http://www.w3.org/Graphics/SVG/1.1/DTD/svg11.dtd">
<svg version="1.1" id="Layer_1" xmlns="http://www.w3.org/2000/svg" xmlns:xlink="http://www.w3.org/1999/xlink" x="0px" y="0px"
	 width="80px" height="80px" viewBox="0 0 80 80" enable-background="new 0 0 80 80" xml:space="preserve">
<g>
	<circle fill="none" stroke="#dadada" stroke-width="2" cx="40" cy="40" r="39"/>
	<g>
		<path fill="#22bc69" d="M48.146,37.769c1.743-1.942,2.813-4.498,2.813-7.303c0-6.043-4.916-10.959-10.958-10.959
			c-6.043,0-10.959,4.916-10.959,10.959c0,6.042,4.916,10.958,10.959,10.958c2.13,0,4.112-0.621,5.799-1.678
			c5.957,2.246,10.062,7.698,10.583,14.007H23.62c0.354-4.245,2.346-8.205,5.586-11.029c0.571-0.498,0.63-1.361,0.132-1.934
			c-0.496-0.568-1.361-0.629-1.933-0.134c-4.185,3.647-6.583,8.92-6.583,14.467c0,0.758,0.614,1.369,1.371,1.369h35.616
			c0.757,0,1.369-0.611,1.369-1.369C59.178,47.607,54.82,40.896,48.146,37.769z M31.78,30.465c0-4.534,3.686-8.219,8.22-8.219
			c4.531,0,8.22,3.685,8.22,8.219c0,4.532-3.688,8.218-8.22,8.218C35.466,38.684,31.78,34.711,31.78,30.465z"/>
	</g>
</g>
</svg>
