<?xml version="1.0" encoding="utf-8"?>
<!DOCTYPE svg PUBLIC "-//W3C//DTD SVG 1.1//EN" "http://www.w3.org/Graphics/SVG/1.1/DTD/svg11.dtd">
<svg version="1.1" id="Layer_1" xmlns="http://www.w3.org/2000/svg" xmlns:xlink="http://www.w3.org/1999/xlink" x="0px" y="0px"
	 width="25.51px" height="24.6px" viewBox="0 0 25.51 24.6" enable-background="new 0 0 25.51 24.6" xml:space="preserve">
<g>
	<g>
		<path fill="#fff" d="M18.176,12.115c1.156-1.292,1.869-2.992,1.869-4.857c0-4.02-3.27-7.289-7.288-7.289
			c-4.02,0-7.29,3.27-7.29,7.289c0,4.018,3.27,7.289,7.29,7.289c1.417,0,2.735-0.414,3.856-1.116
			c3.963,1.493,6.693,5.119,7.039,9.315H1.861c0.235-2.823,1.561-5.457,3.716-7.335c0.379-0.331,0.418-0.905,0.087-1.286
			c-0.33-0.378-0.905-0.418-1.285-0.09C1.595,16.461,0,19.969,0,23.659c0,0.503,0.408,0.91,0.912,0.91h23.689
			c0.504,0,0.91-0.407,0.91-0.91C25.512,18.659,22.613,14.195,18.176,12.115z M7.289,7.257c0-3.016,2.452-5.467,5.468-5.467
			c3.013,0,5.468,2.451,5.468,5.467c0,3.014-2.455,5.466-5.468,5.466C9.74,12.724,7.289,10.081,7.289,7.257z"/>
	</g>
</g>
</svg>
