<?xml version="1.0" encoding="utf-8"?>
<!DOCTYPE svg PUBLIC "-//W3C//DTD SVG 1.1//EN" "http://www.w3.org/Graphics/SVG/1.1/DTD/svg11.dtd">
<svg version="1.1" id="Layer_1" xmlns="http://www.w3.org/2000/svg" xmlns:xlink="http://www.w3.org/1999/xlink" x="0px" y="0px"
	 width="80px" height="80px" viewBox="0 0 80 80" enable-background="new 0 0 80 80" xml:space="preserve">
<g>
	<circle fill="none" stroke="#292f51" stroke-width="2" cx="40" cy="40" r="39"/>
	<g>
		<path fill="#f69f11" d="M48.146,37.769c1.742-1.942,2.813-4.498,2.813-7.303c0-6.043-4.916-10.959-10.958-10.959
			c-6.043,0-10.959,4.916-10.959,10.959c0,6.042,4.916,10.958,10.959,10.958c2.13,0,4.112-0.621,5.799-1.678
			c5.957,2.246,10.062,7.697,10.583,14.007H23.62c0.354-4.245,2.346-8.205,5.586-11.028c0.571-0.498,0.63-1.361,0.132-1.935
			c-0.496-0.568-1.361-0.629-1.933-0.134c-4.185,3.646-6.583,8.92-6.583,14.467c0,0.758,0.614,1.369,1.371,1.369h35.616
			c0.758,0,1.369-0.611,1.369-1.369C59.178,47.607,54.82,40.896,48.146,37.769z M31.78,30.465c0-4.534,3.686-8.219,8.22-8.219
			c4.531,0,8.221,3.685,8.221,8.219c0,4.532-3.688,8.218-8.221,8.218C35.466,38.684,31.78,34.711,31.78,30.465z"/>
	</g>
</g>
<g>
	<path fill="none" stroke="#f69f11" stroke-width="2" stroke-linecap="round" stroke-miterlimit="10" d="M35.505,51.452
		c-2.337,0.718-4.816-0.593-5.535-2.933c-0.131-0.425-0.197-0.866-0.196-1.311c0-2.446,1.983-4.43,4.428-4.43
		c2.447,0,4.429,1.983,4.429,4.43"/>
	<path fill="#f69f11" d="M36.515,46.5h4.315c0.248-0.001,0.453,0.2,0.453,0.45c0.002,0.103-0.033,0.203-0.1,0.285l-2.152,2.657
		c-0.161,0.198-0.45,0.229-0.648,0.069c-0.026-0.021-0.049-0.045-0.068-0.069l-2.153-2.684c-0.142-0.205-0.09-0.486,0.113-0.629
		C36.346,46.53,36.43,46.504,36.515,46.5z"/>
</g>
</svg>
