<?xml version="1.0" encoding="iso-8859-1"?>
<!-- Generator: Adobe Illustrator 19.0.0, SVG Export Plug-In . SVG Version: 6.00 Build 0)  -->
<svg version="1.1" id="Capa_1" xmlns="http://www.w3.org/2000/svg" xmlns:xlink="http://www.w3.org/1999/xlink" x="0px" y="0px"
	 width="53.172px" height="53.172px" viewBox="0 0 512 512" style="enable-background:new 0 0 512 512;" xml:space="preserve">
<g>
	<g>
		<g>
			<path d="M140,432c33.084,0,60-26.916,60-60c0-19.129-9.009-36.183-22.996-47.178l38.438-88.013
				c1.507,0.114,3.023,0.191,4.558,0.191c7.958,0,15.552-1.571,22.508-4.397l51.595,59.113C289.576,300.148,287,309.778,287,320
				c0,33.084,26.916,60,60,60s60-26.916,60-60c0-16.625-6.8-31.688-17.76-42.565l55.484-156.892c2.387,0.29,4.812,0.457,7.276,0.457
				c33.084,0,60-26.916,60-60S485.084,1,452,1s-60,26.916-60,60c0,16.073,6.365,30.678,16.691,41.46l-55.816,157.831
				C350.942,260.102,348.983,260,347,260c-8.28,0-16.174,1.687-23.356,4.733l-51.189-58.648C277.254,197.464,280,187.548,280,177
				c0-33.084-26.916-60-60-60s-60,26.916-60,60c0,17.173,7.263,32.672,18.865,43.619l-39.92,91.408
				C106.348,312.594,80,339.27,80,372C80,405.084,106.916,432,140,432z M452,41c11.028,0,20,8.972,20,20s-8.972,20-20,20
				s-20-8.972-20-20S440.972,41,452,41z M347,300c11.028,0,20,8.972,20,20s-8.972,20-20,20s-20-8.972-20-20S335.972,300,347,300z
				 M220,157c11.028,0,20,8.972,20,20s-8.972,20-20,20s-20-8.972-20-20S208.972,157,220,157z M140,352c11.028,0,20,8.972,20,20
				s-8.972,20-20,20s-20-8.972-20-20S128.972,352,140,352z"/>
			<polygon points="40,0 0,0 0,512 512,512 512,472 40,472 			"/>
		</g>
	</g>
</g>
<g>
</g>
<g>
</g>
<g>
</g>
<g>
</g>
<g>
</g>
<g>
</g>
<g>
</g>
<g>
</g>
<g>
</g>
<g>
</g>
<g>
</g>
<g>
</g>
<g>
</g>
<g>
</g>
<g>
</g>
</svg>
