<?xml version="1.0" encoding="iso-8859-1"?>
<!-- Generator: Adobe Illustrator 16.0.0, SVG Export Plug-In . SVG Version: 6.00 Build 0)  -->
<!DOCTYPE svg PUBLIC "-//W3C//DTD SVG 1.1//EN" "http://www.w3.org/Graphics/SVG/1.1/DTD/svg11.dtd">
<svg version="1.1" id="Capa_1" xmlns="http://www.w3.org/2000/svg" xmlns:xlink="http://www.w3.org/1999/xlink" x="0px" y="0px"
	 width="53.172px" height="53.172px" viewBox="0 0 53.172 53.172" style="enable-background:new 0 0 53.172 53.172;"
	 xml:space="preserve" fill="#fff">
<g>
	<path d="M50.363,42.285c0-0.838-1.305-1.517-2.912-1.517c0,0-0.979,0-2.188,0c-1.207,0-2.13-0.194-2.094-0.44
		c0.021-0.146,0.035-0.296,0.035-0.449V28.717c0-1.607,0.339-2.912,0.758-2.912s0.758-0.679,0.758-1.517
		c0-0.08-0.015-0.157-0.041-0.232c-0.043-0.124,0.541-0.214,1.334-0.214h1.438c1.607,0,2.912-0.928,2.912-2.072
		s-1.118-2.741-2.498-3.567L29.083,6.958c-1.38-0.826-3.616-0.826-4.996,0L5.305,18.204c-1.38,0.826-2.498,2.423-2.498,3.567
		c0,1.145,1.304,2.072,2.912,2.072c0,0,0.643,0,1.437,0c0.793,0,1.377,0.09,1.334,0.214c-0.026,0.076-0.041,0.153-0.041,0.232
		c0,0.837,0.34,1.517,0.758,1.517c0.419,0,0.758,1.303,0.758,2.912v11.162c0,0.152,0.013,0.303,0.035,0.449
		c0.037,0.245-0.886,0.439-2.094,0.439H5.719c-1.608,0-2.912,0.679-2.912,1.516c0,0.838-0.628,1.516-1.404,1.516
		C0.628,43.799,0,44.479,0,45.316s1.303,1.518,2.912,1.518h47.349c1.608,0,2.911-0.68,2.911-1.518c0-0.837-0.628-1.518-1.402-1.518
		C50.992,43.801,50.363,43.121,50.363,42.285z M38.354,28.717v11.162c0,0.152,0.012,0.303,0.033,0.449
		c0.037,0.245-1.25,0.439-2.906,0.439h-3.598c-1.656,0-2.943-0.194-2.906-0.439c0.021-0.146,0.033-0.297,0.033-0.449V28.717
		c0-1.607,0.34-2.912,0.758-2.912c0.42,0,0.76-0.679,0.76-1.517c0-0.08-0.016-0.157-0.041-0.232
		c-0.043-0.124,1.242-0.214,2.897-0.214h0.595c1.656,0,2.94,0.09,2.897,0.214c-0.026,0.076-0.042,0.153-0.042,0.232
		c0,0.837,0.339,1.517,0.758,1.517C38.014,25.805,38.354,27.108,38.354,28.717z M14.817,28.717c0-1.607,0.339-2.912,0.759-2.912
		c0.419,0,0.758-0.679,0.758-1.517c0-0.08-0.015-0.157-0.042-0.232c-0.042-0.123,1.241-0.214,2.898-0.214h0.595
		c1.657,0,2.941,0.09,2.898,0.214c-0.026,0.076-0.041,0.153-0.041,0.232c0,0.837,0.339,1.517,0.759,1.517
		c0.418,0,0.758,1.303,0.758,2.912v11.162c0,0.152,0.013,0.303,0.034,0.449c0.037,0.245-1.25,0.439-2.907,0.439h-3.597
		c-1.657,0-2.943-0.194-2.907-0.439c0.021-0.146,0.034-0.297,0.034-0.449L14.817,28.717L14.817,28.717z"/>
</g>
<g>
</g>
<g>
</g>
<g>
</g>
<g>
</g>
<g>
</g>
<g>
</g>
<g>
</g>
<g>
</g>
<g>
</g>
<g>
</g>
<g>
</g>
<g>
</g>
<g>
</g>
<g>
</g>
<g>
</g>
</svg>
